<?xml version="1.0" ?><svg id="Layer_1" style="enable-background:new 0 0 80 80;" version="1.1" viewBox="0 0 80 80" xml:space="preserve" xmlns="http://www.w3.org/2000/svg" xmlns:xlink="http://www.w3.org/1999/xlink"><title/><g id="Layer_2"><g id="Layer_3"><path d="M41.5,55c1.6-0.8,3-2,4.1-3.4c0.9-1.3,1.5-2.8,1.8-4.4h4.7c0,0,0.9-1.2,2.5-3.6c0,0,0-0.1-0.1-0.1h-7.2    c-0.3-1.5-0.9-2.8-1.9-4h6.7c0.9-1.2,1.8-2.4,2.5-3.7v0H29.4c-0.1,0-0.9,1.2-2.5,3.6v0.1h6.6c1.3,0,2.5,0.3,3.7,0.7    c1.7,0.5,3.1,1.7,4,3.2v0H29.4c0,0-0.9,1.2-2.5,3.6c0,0,0,0.1,0.1,0.1c0,0,0,0,0,0h15c0,0.6-0.1,1.1-0.3,1.6    c-1.3,3.6-4.8,5.4-10.3,5.4c-1,0-2.1,0-3.1-0.2l0,0.1v3.5c0,0.1,4.9,5.8,14.8,17.3h5.4c0.1,0,0.1,0,0.1-0.1v-0.7l-12.4-15    c-0.6-0.6-1.2-1.4-1.7-2.2v0C36.9,56.8,39.4,56.2,41.5,55z"/><polygon points="5.4,5.2 5.4,74.3 33.9,74.3 33.9,71.3 8.4,71.3 8.4,8.2 71.6,8.2 71.6,71.3 54.3,71.3 54.3,74.3 74.6,74.3     74.6,5.2   "/></g></g></svg>